<?xml version="1.0" encoding="UTF-8"?>
<svg version="1.1" xmlns="http://www.w3.org/2000/svg" width="500" height="500">
<path d="M0 0 C165 0 330 0 500 0 C500 165 500 330 500 500 C335 500 170 500 0 500 C0 335 0 170 0 0 Z " fill="#FDFDFD" transform="translate(0,0)"/>
<path d="M0 0 C0.72960937 -0.01224609 1.45921875 -0.02449219 2.2109375 -0.03710938 C14.04116741 -0.06879749 24.12401298 5.08950151 32.640625 13.0625 C36.21574692 16.89097702 39.625 20.80526914 39.625 26.1875 C40.31207031 25.76597656 40.99914062 25.34445313 41.70703125 24.91015625 C42.60808594 24.36230469 43.50914062 23.81445312 44.4375 23.25 C45.33082031 22.70472656 46.22414063 22.15945312 47.14453125 21.59765625 C54.11085903 17.63727148 64.78627084 17.97781771 72.5 19.90625 C74.68808969 20.84834417 76.6220323 21.90169658 78.625 23.1875 C79.2334375 23.52652344 79.841875 23.86554688 80.46875 24.21484375 C87.07633626 28.28662388 92.32678269 35.44137248 94.26098633 42.96044922 C95.11802432 48.20384331 95.03726414 53.51296942 95.0625 58.8125 C95.09537109 60.00746094 95.12824219 61.20242187 95.16210938 62.43359375 C95.22328092 72.69929077 93.13601159 82.36948771 86.4375 90.4375 C83.625 93.1875 83.625 93.1875 81.625 94.1875 C80.97286708 96.21213255 80.97286708 96.21213255 80.625 98.1875 C81.19605469 98.20167969 81.76710938 98.21585937 82.35546875 98.23046875 C93.75856519 98.90123913 103.31977207 102.78330239 111.52734375 110.77734375 C119.16305149 119.55058709 119.84227518 127.45097094 119.9375 138.6875 C119.96650391 139.82832031 119.99550781 140.96914062 120.02539062 142.14453125 C120.03376953 143.24152344 120.04214844 144.33851563 120.05078125 145.46875 C120.06536377 146.46970703 120.07994629 147.47066406 120.0949707 148.50195312 C119.625 151.1875 119.625 151.1875 118.12866211 153.52050781 C114.56649585 155.89227488 111.26983006 155.68621385 107.140625 155.578125 C106.32503113 155.57246521 105.50943726 155.56680542 104.66912842 155.56097412 C102.07048228 155.53862727 99.47322758 155.48843622 96.875 155.4375 C95.11069703 155.41743271 93.3463724 155.39918234 91.58203125 155.3828125 C87.26248672 155.3387683 82.94397907 155.26975422 78.625 155.1875 C78.64594727 156.13592773 78.66689453 157.08435547 78.68847656 158.06152344 C78.7567356 161.58766425 78.80683929 165.11310099 78.84472656 168.63964844 C78.86481599 170.16450085 78.89209316 171.68927648 78.92675781 173.21386719 C78.97539796 175.40839598 78.99799396 177.60190469 79.015625 179.796875 C79.03657227 181.11655273 79.05751953 182.43623047 79.07910156 183.79589844 C78.53942879 187.82661573 77.74994186 188.70193073 74.625 191.1875 C72.23474121 191.69543457 72.23474121 191.69543457 69.55273438 191.70507812 C68.04096619 191.72399109 68.04096619 191.72399109 66.49865723 191.74328613 C65.41628784 191.73518921 64.33391846 191.72709229 63.21875 191.71875 C62.10189819 191.7225769 60.98504639 191.72640381 59.83435059 191.73034668 C57.47403054 191.73306756 55.11368043 191.7256942 52.75341797 191.70898438 C49.13831425 191.68757884 45.52519807 191.70878178 41.91015625 191.734375 C39.61718311 191.73173176 37.3242112 191.72660686 35.03125 191.71875 C33.94888062 191.72684692 32.86651123 191.73494385 31.75134277 191.74328613 C30.74349731 191.73067749 29.73565186 191.71806885 28.69726562 191.70507812 C27.81220337 191.70189575 26.92714111 191.69871338 26.01525879 191.69543457 C22.83353904 191.01931303 21.62528319 189.70227603 19.625 187.1875 C19.125 184.1875 19.125 184.1875 19.625 181.1875 C21.265625 179.015625 21.265625 179.015625 23.625 177.1875 C26.640625 176.796875 26.640625 176.796875 29.875 176.9375 C30.95265625 176.97359375 32.0303125 177.0096875 33.140625 177.046875 C33.96046875 177.09328125 34.7803125 177.1396875 35.625 177.1875 C35.60405273 176.63288086 35.58310547 176.07826172 35.56152344 175.50683594 C35.47816452 172.98390977 35.42628132 170.46127351 35.375 167.9375 C35.32472656 166.62845703 35.32472656 166.62845703 35.2734375 165.29296875 C35.17465331 158.82260431 35.17465331 158.82260431 37.453125 155.609375 C40.42368862 153.66461752 42.14202673 153.60700446 45.625 154.1875 C47.796875 155.609375 47.796875 155.609375 49.625 158.1875 C50.11750309 161.45071064 50.00137181 164.64697252 49.875 167.9375 C49.85695313 168.82566406 49.83890625 169.71382812 49.8203125 170.62890625 C49.77328752 172.81556775 49.70154648 175.00167281 49.625 177.1875 C54.575 177.1875 59.525 177.1875 64.625 177.1875 C64.57868339 153.82163704 64.57868339 153.82163704 52.9375 134.54296875 C44.75191062 128.02420302 30.98695031 124.92947876 20.625 125.1875 C20.31272461 125.87263672 20.00044922 126.55777344 19.67871094 127.26367188 C18.24563021 130.40562977 16.81033199 133.54656995 15.375 136.6875 C14.88386719 137.76515625 14.39273438 138.8428125 13.88671875 139.953125 C6.11783597 156.94108202 6.11783597 156.94108202 3.625 158.1875 C-1.59033042 158.75438374 -1.59033042 158.75438374 -4.2890625 156.8046875 C-7.3843927 152.92103351 -9.01150739 148.57605095 -10.875 144 C-11.63486679 142.17294829 -12.39527894 140.3461233 -13.15625 138.51953125 C-13.52234375 137.63346191 -13.8884375 136.74739258 -14.265625 135.83447266 C-15.90478566 131.92342955 -17.63098698 128.05272232 -19.375 124.1875 C-40.25901502 127.64401268 -40.25901502 127.64401268 -56.75 139.9375 C-62.14529511 148.01839062 -62.85120625 156.82239193 -63.0625 166.3125 C-63.09666016 167.364375 -63.13082031 168.41625 -63.16601562 169.5 C-63.24753858 172.06215007 -63.31296479 174.62480404 -63.375 177.1875 C-58.425 177.1875 -53.475 177.1875 -48.375 177.1875 C-48.42140625 175.86234375 -48.4678125 174.5371875 -48.515625 173.171875 C-48.55314692 171.42710588 -48.58954663 169.68231238 -48.625 167.9375 C-48.65851563 167.06480469 -48.69203125 166.19210937 -48.7265625 165.29296875 C-48.82533231 158.82354627 -48.82533231 158.82354627 -46.546875 155.60546875 C-43.59887426 153.68078481 -41.83247056 153.68328554 -38.375 154.1875 C-35.2390843 155.96734405 -34.53397264 156.71058207 -33.375 160.1875 C-33.30448886 162.92615287 -33.28142235 165.63777588 -33.3125 168.375 C-33.31701172 169.12458984 -33.32152344 169.87417969 -33.32617188 170.64648438 C-33.33793646 172.49352383 -33.35587135 174.34052213 -33.375 176.1875 C-32.69953125 176.14109375 -32.0240625 176.0946875 -31.328125 176.046875 C-24.10243018 175.75450585 -24.10243018 175.75450585 -20.75 177.75 C-18.83288237 181.14852671 -18.82638362 183.34718535 -19.375 187.1875 C-20.70703125 189.37304688 -20.70703125 189.37304688 -23.375 191.1875 C-27.10025764 191.7971532 -30.7948008 191.74751653 -34.5625 191.71875 C-35.65715576 191.7225769 -36.75181152 191.72640381 -37.87963867 191.73034668 C-40.19288045 191.73306736 -42.50615292 191.72569534 -44.81933594 191.70898438 C-48.36202522 191.6875784 -51.90268636 191.70878226 -55.4453125 191.734375 C-57.69271281 191.73173175 -59.94011187 191.72660684 -62.1875 191.71875 C-63.24799561 191.72684692 -64.30849121 191.73494385 -65.40112305 191.74328613 C-72.58497799 191.65159106 -72.58497799 191.65159106 -76.04980469 189.61621094 C-77.90251557 186.22071207 -77.826869 183.6552467 -77.765625 179.796875 C-77.75996521 179.09226135 -77.75430542 178.38764771 -77.74847412 177.66168213 C-77.72615078 175.41958572 -77.67596754 173.17911012 -77.625 170.9375 C-77.60492952 169.41408565 -77.5866797 167.89064614 -77.5703125 166.3671875 C-77.52630118 162.6401017 -77.45730372 158.91395913 -77.375 155.1875 C-78.47489258 155.21368408 -79.57478516 155.23986816 -80.70800781 155.2668457 C-84.79292418 155.35741878 -88.87775203 155.41477433 -92.96337891 155.4621582 C-94.73078338 155.48728641 -96.4980841 155.52139516 -98.26513672 155.56469727 C-100.80722649 155.62542735 -103.34794165 155.65372515 -105.890625 155.67578125 C-107.07365204 155.71449089 -107.07365204 155.71449089 -108.28057861 155.75398254 C-112.10145841 155.75593128 -113.965141 155.54879409 -116.87426758 152.984375 C-118.47670068 149.99796316 -118.87811635 148.30877058 -118.87109375 144.94921875 C-118.87173828 143.96373047 -118.87238281 142.97824219 -118.87304688 141.96289062 C-118.84307617 140.43438477 -118.84307617 140.43438477 -118.8125 138.875 C-118.81958984 137.86759766 -118.82667969 136.86019531 -118.83398438 135.82226562 C-118.74127456 124.87537613 -115.01797917 116.73394827 -107.88671875 108.4609375 C-100.45749629 101.27136738 -89.32447027 98.69227316 -79.375 97.1875 C-80.08780679 94.06879347 -80.08780679 94.06879347 -82.5625 92.625 C-88.9903247 87.0542186 -92.90702133 78.95226522 -93.59350586 70.49584961 C-94.74279826 41.09929171 -94.74279826 41.09929171 -85.125 29.6875 C-77.91589898 22.37133312 -71.62995607 18.97194553 -61.3125 18.875 C-55.052681 18.83330758 -50.06072275 19.39755903 -44.35546875 22.21484375 C-42.37182236 23.18906062 -40.53000177 23.72744344 -38.375 24.1875 C-38.0346875 23.630625 -37.694375 23.07375 -37.34375 22.5 C-30.94126685 12.41949462 -22.94877215 3.87657982 -11.06640625 0.5390625 C-7.37657403 0.05708151 -3.71424532 0.00324672 0 0 Z " fill="#050505" transform="translate(249.375,89.8125)"/>
<path d="M0 0 C0.33 0 0.66 0 1 0 C1 77.22 1 154.44 1 234 C-76.55 234 -154.1 234 -234 234 C-234 233.67 -234 233.34 -234 233 C-232.71609375 232.90203125 -231.4321875 232.8040625 -230.109375 232.703125 C-217.50838981 231.66726297 -205.32059107 229.83091857 -193 227 C-191.18242187 226.58814453 -191.18242187 226.58814453 -189.328125 226.16796875 C-155.36424145 217.75383923 -123.51278078 202.65106763 -96 181 C-95.030625 180.24203125 -94.06125 179.4840625 -93.0625 178.703125 C-68.14360931 158.73969552 -47.62285953 134.8647059 -32 107 C-31.6292334 106.34741211 -31.2584668 105.69482422 -30.87646484 105.02246094 C-12.72623374 72.86708773 -2.83989762 36.7038084 0 0 Z " fill="#010101" transform="translate(499,266)"/>
<path d="M0 0 C0.33 0 0.66 0 1 0 C1.09498779 0.7935791 1.18997559 1.5871582 1.2878418 2.40478516 C9.57287681 70.56333434 38.02350443 133.73491529 93 177 C94.40958984 178.15242188 94.40958984 178.15242188 95.84765625 179.328125 C135.68569825 211.1985586 183.70676781 227.36970128 234 232 C234 232.33 234 232.66 234 233 C156.78 233 79.56 233 0 233 C0 156.11 0 79.22 0 0 Z " fill="#000000" transform="translate(0,267)"/>
<path d="M0 0 C77.55 0 155.1 0 235 0 C235 76.56 235 153.12 235 232 C234.67 232 234.34 232 234 232 C233.94577881 231.39454346 233.89155762 230.78908691 233.83569336 230.1652832 C228.18463872 170.0688144 203.19055398 117.70741346 162 74 C161.31035156 73.2678125 160.62070312 72.535625 159.91015625 71.78125 C155.15930291 66.88466497 150.03309894 62.54238515 144.67675781 58.32177734 C143.49314429 57.38874245 142.31313833 56.45112233 141.13574219 55.51025391 C130.58413495 47.09748597 119.71063898 39.70336733 108 33 C107.32565918 32.6086084 106.65131836 32.2172168 105.95654297 31.81396484 C88.2470678 21.62417857 68.80229835 13.9959927 49 9 C48.27844727 8.81743652 47.55689453 8.63487305 46.81347656 8.44677734 C41.89196642 7.21800674 36.95515883 6.08488712 32 5 C30.62714844 4.69255859 30.62714844 4.69255859 29.2265625 4.37890625 C19.61945693 2.42414818 9.75419513 1.84488363 0 1 C0 0.67 0 0.34 0 0 Z " fill="#000000" transform="translate(265,0)"/>
<path d="M0 0 C77.22 0 154.44 0 234 0 C234 0.33 234 0.66 234 1 C233.31824707 1.05945801 232.63649414 1.11891602 231.93408203 1.18017578 C184.00814211 5.52253944 139.68399883 21.09695293 101 50 C100.38672852 50.45487793 99.77345703 50.90975586 99.14160156 51.37841797 C83.08096515 63.36913315 68.45476307 77.30863732 56 93 C55.21625 93.96679688 54.4325 94.93359375 53.625 95.9296875 C22.38421591 135.28105976 4.14169047 183.94962085 1 234 C0.67 234 0.34 234 0 234 C0 156.78 0 79.56 0 0 Z " fill="#000000" transform="translate(0,0)"/>
<path d="M0 0 C6.7981771 2.6015803 11.76813595 7.57204837 14.91131592 14.02239609 C16.64494923 19.0446743 16.33033554 24.25979769 16.29492188 29.51806641 C16.30193115 30.80372498 16.30894043 32.08938354 16.31616211 33.41400146 C16.33431164 36.92277555 16.32736019 40.43107618 16.31464577 43.93985796 C16.30446134 47.63019543 16.31392766 51.32049454 16.32019043 55.01083374 C16.32745658 61.21286218 16.31791216 67.4146998 16.29882812 73.61669922 C16.27711886 80.75356389 16.28407126 87.88997031 16.30613375 95.02682364 C16.32438655 101.18090778 16.32679651 107.33485525 16.31637907 113.48895776 C16.31019056 117.1524805 16.30917738 120.81578925 16.32252502 124.47929764 C16.33640827 128.57582157 16.31707434 132.67157871 16.29492188 136.76806641 C16.3030188 137.95816315 16.31111572 139.14825989 16.31945801 140.37442017 C16.10244269 162.21546138 4.85002813 177.4277006 -7.55126953 194.24658203 C-10.21794048 197.89173347 -12.8146651 201.58524032 -15.41015625 205.28125 C-19.39455121 210.94393218 -23.39934498 216.59092418 -27.43212891 222.21923828 C-30.22092179 226.11598399 -32.98281785 230.03089126 -35.73632812 233.95263672 C-39.84998558 239.80539084 -43.97547833 245.64934358 -48.22265625 251.40625 C-48.90328125 252.33179688 -49.58390625 253.25734375 -50.28515625 254.2109375 C-52.80442356 257.22796327 -54.79626459 259.28163146 -58.72265625 259.96875 C-61.22265625 259.53125 -61.22265625 259.53125 -63.53515625 257.96875 C-65.92188832 254.52124812 -65.72898287 252.69066041 -65.22265625 248.53125 C-63.59242075 245.42149818 -61.50228367 242.732586 -59.34765625 239.96875 C-58.14283285 238.36488097 -56.93840947 236.76071137 -55.734375 235.15625 C-55.13544434 234.36992187 -54.53651367 233.58359375 -53.91943359 232.7734375 C-51.6047068 229.71466759 -49.37651559 226.59912861 -47.16015625 223.46875 C-46.35423422 222.33849349 -45.54824378 221.20828577 -44.7421875 220.078125 C-40.91251066 214.69259451 -37.10378763 209.29225965 -33.296875 203.890625 C-31.26144149 201.00262344 -29.22230612 198.11729893 -27.1796875 195.234375 C-24.68062144 191.70682699 -22.19128519 188.17255984 -19.70605469 184.63525391 C-18.21156736 182.51552188 -16.70556171 180.40428634 -15.19921875 178.29296875 C-4.40160196 163.04738381 1.26007995 148.92096897 1.18139648 129.93554688 C1.18825974 128.75174438 1.19512299 127.56794189 1.20219421 126.3482666 C1.22031984 122.48205172 1.2166481 118.61624773 1.2109375 114.75 C1.21341902 112.72980577 1.21776699 110.70962131 1.22229058 108.68943071 C1.23625694 102.35996647 1.23483553 96.03063749 1.22338867 89.70117188 C1.21186214 83.18375457 1.2260764 76.66674659 1.25278515 70.14938307 C1.27494163 64.5312256 1.28158125 58.9131967 1.27570873 53.29499865 C1.27234411 49.948659 1.27643928 46.6027935 1.29195976 43.25645447 C1.30680393 39.53458836 1.29624311 35.81363403 1.27905273 32.09179688 C1.2887207 30.98940674 1.29838867 29.8870166 1.30834961 28.7512207 C1.27015393 22.7606789 1.27015393 22.7606789 -1.12901306 17.37121582 C-3.59625691 15.20291686 -4.71301193 14.60074695 -7.97265625 14.15625 C-11.46981613 14.55976845 -13.32255263 15.50082911 -15.9556427 17.82542801 C-18.50895998 21.263043 -17.99613589 25.29020075 -17.90039062 29.40771484 C-17.9013826 30.39872192 -17.90237457 31.389729 -17.90339661 32.4107666 C-17.90176568 34.56116085 -17.8863753 36.71157875 -17.85884094 38.86179733 C-17.81596025 42.27771615 -17.81052515 45.69189789 -17.81481934 49.10806274 C-17.8177444 57.59977723 -17.75647657 66.0908114 -17.69683838 74.58227539 C-17.64890627 81.74699083 -17.62588461 88.91097837 -17.63484192 96.07585526 C-17.62903321 99.4191138 -17.5874668 102.76065428 -17.54431152 106.10360718 C-17.4246188 131.99101276 -28.64239958 146.53978628 -46.22265625 164.53125 C-47.47314886 165.78206251 -48.72568128 167.0308398 -49.98046875 168.27734375 C-52.29151468 170.57702282 -54.49927014 172.9081713 -56.59765625 175.40625 C-57.80265989 176.78416896 -59.01123185 178.15897256 -60.22265625 179.53125 C-60.94710937 180.35882813 -61.6715625 181.18640625 -62.41796875 182.0390625 C-68.24710507 188.34243364 -68.24710507 188.34243364 -73.09765625 189.28125 C-76.22265625 188.53125 -76.22265625 188.53125 -78.16015625 187.53125 C-79.87100683 184.31082539 -79.81400578 181.0480719 -79.22265625 177.53125 C-77.5578102 175.1132593 -76.17408497 173.45180889 -74.09765625 171.46875 C-72.99685227 170.35079539 -71.89661555 169.23228199 -70.796875 168.11328125 C-70.21470215 167.53400879 -69.6325293 166.95473633 -69.03271484 166.35791016 C-65.90703675 163.20356385 -62.92031607 159.92031309 -59.91015625 156.65625 C-55.95933279 152.39310176 -51.94675944 148.21470532 -47.80566406 144.13549805 C-43.5658917 139.83883793 -40.93812862 136.61757035 -40.59765625 130.40625 C-40.78541516 126.55132483 -41.1235615 125.65903007 -43.59765625 122.46875 C-47.43715102 119.6348372 -49.43068445 119.10083337 -54.22265625 119.53125 C-57.3182496 121.02243605 -57.3182496 121.02243605 -60.41015625 123.21875 C-61.00038574 123.61594238 -61.59061523 124.01313477 -62.19873047 124.42236328 C-63.50250154 125.3025844 -64.8021217 126.18897623 -66.09814453 127.08056641 C-68.36115306 128.62581999 -70.64702877 130.13250788 -72.9375 131.63671875 C-97.13238071 147.65631475 -115.68379014 167.51251116 -122.22265625 196.53125 C-122.96346722 200.29933251 -123.66315001 204.07437523 -124.35693359 207.85131836 C-125.8343342 215.87944732 -127.40370656 223.88880214 -129.01953125 231.89013672 C-129.40894415 233.83753013 -129.79063165 235.78648244 -130.16503906 237.73681641 C-130.7147939 240.59430724 -131.29016028 243.44558152 -131.87109375 246.296875 C-132.03274017 247.1666095 -132.1943866 248.03634399 -132.3609314 248.93243408 C-133.20535322 252.94764911 -133.7790055 255.05738905 -136.63916016 258.11230469 C-140.22700223 260.08287151 -142.34961613 259.62739343 -146.22265625 258.53125 C-150.14180958 252.65252 -148.45940297 245.05297402 -147.16870117 238.39233398 C-146.69212466 236.18472384 -146.20305664 233.97978241 -145.703125 231.77734375 C-145.44388748 230.59584244 -145.18464996 229.41434113 -144.91755676 228.19703674 C-144.37058531 225.71423191 -143.81814633 223.23262586 -143.26049805 220.75219727 C-142.41237384 216.97861678 -141.58070428 213.20170563 -140.75195312 209.42382812 C-140.21579972 206.99978836 -139.67872126 204.57595297 -139.140625 202.15234375 C-138.8936235 201.03540634 -138.64662201 199.91846893 -138.39213562 198.76768494 C-130.63233568 164.34062363 -113.03857033 140.10072212 -84.22265625 120.53125 C-83.59391602 120.09893066 -82.96517578 119.66661133 -82.31738281 119.22119141 C-78.55613392 116.63664076 -74.76699919 114.10453909 -70.92871094 111.63574219 C-69.38090315 110.63369834 -67.85139698 109.60352472 -66.32421875 108.5703125 C-59.13112489 104.0772656 -52.60042166 103.33154593 -44.22265625 104.53125 C-39.55354495 106.02507695 -36.1025861 108.61256404 -32.22265625 111.53125 C-32.2315387 110.35884766 -32.24042114 109.18644531 -32.24957275 107.97851562 C-32.33075874 96.91452096 -32.39066983 85.85058696 -32.42990494 74.78636169 C-32.45075444 69.09849607 -32.47902429 63.41087146 -32.52441406 57.72314453 C-32.56796529 52.23125854 -32.59181319 46.73960398 -32.60216522 41.24755859 C-32.6095399 39.1552364 -32.62394093 37.06292646 -32.64557648 34.97070312 C-32.6747334 32.03357857 -32.67860707 29.0974029 -32.67675781 26.16015625 C-32.69113892 25.3005983 -32.70552002 24.44104034 -32.72033691 23.55543518 C-32.67497382 16.87023648 -30.92995416 11.6140568 -26.4765625 6.54296875 C-25.63931641 5.88748047 -25.63931641 5.88748047 -24.78515625 5.21875 C-24.22957031 4.76886719 -23.67398438 4.31898438 -23.1015625 3.85546875 C-22.48152344 3.41847656 -21.86148438 2.98148438 -21.22265625 2.53125 C-20.46597656 1.98855469 -19.70929688 1.44585937 -18.9296875 0.88671875 C-13.34715603 -1.90857479 -6.01513946 -1.26857071 0 0 Z " fill="#050505" transform="translate(421.22265625,165.46875)"/>
<path d="M0 0 C6.26852943 4.38916008 9.53089655 8.75678249 12 16 C12.50094749 19.17411825 12.50982844 22.25888199 12.45410156 25.46704102 C12.45468567 26.36568375 12.45526978 27.26432648 12.45587158 28.19020081 C12.45310895 31.12851059 12.42210403 34.06577609 12.390625 37.00390625 C12.38315612 39.05370022 12.37746625 41.10350137 12.37347412 43.15330505 C12.3582688 48.52430249 12.31903115 53.89486094 12.2746582 59.26568604 C12.23359513 64.75583967 12.21543959 70.24606488 12.1953125 75.73632812 C12.1525318 86.49107732 12.08434263 97.24550202 12 108 C12.67646576 107.57775146 13.35293152 107.15550293 14.04989624 106.72045898 C15.38910629 105.89783569 15.38910629 105.89783569 16.75537109 105.05859375 C17.63808685 104.51259521 18.52080261 103.96659668 19.43026733 103.40405273 C25.18705063 100.25865655 31.72585862 100.43803979 38 102 C43.10905501 104.09409701 47.53640643 107.29212922 51.97363281 110.53271484 C54.02239696 112.01621756 56.10557054 113.43023611 58.2109375 114.83203125 C93.41228816 138.34745229 110.17460679 163.81542239 118.875 204.75 C119.57858175 208.04965997 120.28325446 211.34908602 120.98828125 214.6484375 C121.24655952 215.85948654 121.24655952 215.85948654 121.51005554 217.09500122 C122.52447843 221.83562684 123.57591854 226.56555988 124.66796875 231.2890625 C124.90725098 232.33610352 125.1465332 233.38314453 125.39306641 234.46191406 C125.82432108 236.33854819 126.26470572 238.21311931 126.71630859 240.08496094 C127.83957445 245.02347399 128.25959649 248.97459958 127 254 C124.19114934 256.56809203 122.67384851 257 118.875 257 C115.14905014 255.70401744 114.73755718 254.48931783 113 251 C112.30809352 248.67011084 111.71601757 246.30979577 111.1875 243.9375 C111.02717285 243.22505127 110.8668457 242.51260254 110.70166016 241.77856445 C110.12359235 239.18799409 109.5617713 236.59415275 109 234 C108.75813965 232.89849609 108.5162793 231.79699219 108.26708984 230.66210938 C107.46442757 227.00503857 106.66825652 223.34662209 105.875 219.6875 C105.62129639 218.52017334 105.36759277 217.35284668 105.10620117 216.15014648 C103.93045321 210.65982687 102.83970847 205.18224375 101.95703125 199.63671875 C97.75187593 173.66988463 83.80089891 151.89221912 62.51342773 136.53173828 C60.35271444 135.00556021 58.17912136 133.49978751 56 132 C55.06559082 131.35530762 54.13118164 130.71061523 53.16845703 130.04638672 C50.1046118 127.94820644 47.02446727 125.87648616 43.9375 123.8125 C42.94991699 123.14009277 41.96233398 122.46768555 40.94482422 121.77490234 C40.00268066 121.15437988 39.06053711 120.53385742 38.08984375 119.89453125 C37.25316162 119.33612549 36.41647949 118.77771973 35.55444336 118.20239258 C32.45666465 116.74424863 30.38894717 116.65030808 27 117 C22.77518254 119.2758823 22.77518254 119.2758823 20 123 C19.31800643 127.5947379 18.91635807 132.06965665 21.24609375 136.21972656 C23.0567461 138.33459359 24.96233907 140.22794822 27 142.125 C28.46816944 143.58390967 29.93559542 145.04356784 31.40234375 146.50390625 C32.16144043 147.24141113 32.92053711 147.97891602 33.70263672 148.73876953 C37.43254962 152.41001855 40.99046118 156.23858664 44.5625 160.0625 C45.20380859 160.74006348 45.84511719 161.41762695 46.50585938 162.11572266 C49.67993248 165.47431565 52.8226262 168.86163669 55.91796875 172.29296875 C56.49184326 172.92614014 57.06571777 173.55931152 57.65698242 174.21166992 C59 176 59 176 59.75 179.25 C59 182 59 182 56.875 184.375 C53.40552616 186.33600695 51.93669933 186.58215432 48 186 C45.53301197 184.29902085 43.58677531 182.1974239 41.5625 180 C40.70229248 179.1030542 40.70229248 179.1030542 39.82470703 178.18798828 C36.37249729 174.56321708 33.04236839 170.84100153 29.8046875 167.0234375 C27.47359071 164.40978353 24.99124848 161.95909525 22.5 159.5 C12.8286668 149.91528063 3.83843391 139.93306504 -1 127 C-1.34238708 126.17387711 -1.68477417 125.34775421 -2.03753662 124.49659729 C-3.30760954 119.88246483 -3.26032899 115.61403987 -3.22363281 110.85131836 C-3.22404068 109.84410233 -3.22444855 108.83688629 -3.22486877 107.79914856 C-3.22506587 105.61878561 -3.22104308 103.43841907 -3.21326447 101.25806999 C-3.20302873 97.80738775 -3.20842856 94.35706609 -3.21868896 90.90638733 C-3.24665218 81.09792665 -3.25908668 71.28967144 -3.22998047 61.48120117 C-3.2132788 55.4764581 -3.22552021 49.47236224 -3.25643158 43.46768379 C-3.26254392 41.18033688 -3.25764475 38.89293317 -3.24155426 36.60563469 C-3.22000211 33.40945836 -3.23521182 30.21540379 -3.25878906 27.01928711 C-3.23574455 25.60167587 -3.23574455 25.60167587 -3.2122345 24.15542603 C-3.22585529 19.41593109 -3.22585529 19.41593109 -5.27751923 15.29196358 C-7.78711315 13.09163393 -9.77882925 12.0406232 -13.0625 11.4375 C-16.67781108 12.12979361 -18.38108416 13.45591033 -21 16 C-22.22425961 18.44851923 -22.13118256 20.03979778 -22.14044189 22.77789307 C-22.14615204 23.78693695 -22.15186218 24.79598083 -22.15774536 25.83560181 C-22.15886322 26.94720673 -22.15998108 28.05881165 -22.16113281 29.20410156 C-22.16609772 30.37184113 -22.17106262 31.53958069 -22.17617798 32.7427063 C-22.18830507 35.95417516 -22.19575151 39.16560757 -22.20018864 42.37709522 C-22.20312167 44.38833966 -22.20722727 46.39957843 -22.21169281 48.41082001 C-22.2253814 54.71662566 -22.23503714 61.02241829 -22.2388947 67.32823777 C-22.24335642 74.58070528 -22.26081004 81.83298252 -22.2898953 89.08539224 C-22.31163675 94.70429237 -22.32160584 100.32313953 -22.32293582 105.94208121 C-22.3239765 109.29050271 -22.33120437 112.6386049 -22.34775543 115.98700714 C-22.47425137 143.56578102 -17.44434806 160.06009654 -1.2175293 182.30517578 C1.58299829 186.20356409 2.59228398 188.16301414 2 193 C-0.1087883 196.20535822 -1.544732 196.87742785 -5.25 197.875 C-11.32835882 196.45671628 -13.62082441 191.93879509 -17 187 C-17.47695312 186.32453125 -17.95390625 185.6490625 -18.4453125 184.953125 C-24.68467464 176.11141584 -30.72176473 167.41868293 -34 157 C-34.24278435 156.26052691 -34.4855687 155.52105381 -34.73571014 154.75917244 C-36.99326236 147.3380097 -37.43909757 140.50189185 -37.41992188 132.77685547 C-37.42839142 131.5022345 -37.43686096 130.22761353 -37.44558716 128.91436768 C-37.46760762 125.45165569 -37.47074409 121.98918295 -37.46883965 118.52641058 C-37.46871914 115.62382251 -37.47731495 112.72128369 -37.48561716 109.81870949 C-37.50477768 102.968461 -37.5077606 96.11833434 -37.50097656 89.26806641 C-37.49432734 82.22244074 -37.51725194 75.17733745 -37.55429029 68.1318177 C-37.58504873 62.05843896 -37.59634112 55.98522785 -37.59245348 49.91177285 C-37.59039386 46.29475932 -37.59574353 42.67815349 -37.62034607 39.06121445 C-37.64687752 35.02857869 -37.63283891 30.99704016 -37.61523438 26.96435547 C-37.63512924 25.18736771 -37.63512924 25.18736771 -37.65542603 23.3744812 C-37.57450644 15.38169072 -36.06005138 9.46182925 -30.59273529 3.45347404 C-22.15216753 -4.18623814 -9.92166162 -5.91483673 0 0 Z " fill="#060606" transform="translate(100,168)"/>
<path d="M0 0 C5.4368445 1.70918764 9.82625309 3.39915128 13.609375 7.8203125 C15.84535461 15.27608949 14.72396791 24.47834934 11.609375 31.5078125 C7.07333104 38.91073817 0.06403201 44.61587739 -8.390625 46.8203125 C-17.09501797 47.97944021 -24.20102034 47.00999192 -31.390625 41.8203125 C-37.40422109 36.70875582 -40.72054064 30.50270055 -42.390625 22.8203125 C-42.67538914 18.79160016 -42.64375509 14.84929979 -42.390625 10.8203125 C-41.15828125 10.79453125 -39.9259375 10.76875 -38.65625 10.7421875 C-25.74565486 10.3515512 -14.87089225 9.20634405 -4.42578125 0.89453125 C-2.390625 -0.1796875 -2.390625 -0.1796875 0 0 Z " fill="#FAFAFA" transform="translate(264.390625,137.1796875)"/>
<path d="M0 0 C2.64 0 5.28 0 8 0 C8.4640625 1.6396875 8.4640625 1.6396875 8.9375 3.3125 C10.46241083 6.75562445 10.90717981 6.95839095 14.625 8.625 C16.4092649 9.11135135 18.20273011 9.56415619 20 10 C40.64440925 15.1727177 40.64440925 15.1727177 46.07641602 23.68725586 C47.31704572 26.79391333 47.19165348 29.41732577 47.125 32.75 C47.10695313 33.92046875 47.08890625 35.0909375 47.0703125 36.296875 C47.04710937 37.18890625 47.02390625 38.0809375 47 39 C21.75371226 41.06736245 21.75371226 41.06736245 15.88818359 37.83691406 C12.52379316 34.50862928 10.97488565 30.24749276 9 26 C6.26563232 23.21799525 3.27789787 21.09858037 0 19 C-0.59554688 18.60425781 -1.19109375 18.20851562 -1.8046875 17.80078125 C-6.25419536 15.04290656 -11.02160121 13.49013297 -16 12 C-12.50913723 9.67275816 -9.29106676 8.86572141 -5.27734375 7.78125 C-2.83784466 7.13077487 -2.83784466 7.13077487 -1 5 C-0.35232207 2.42938689 -0.35232207 2.42938689 0 0 Z " fill="#F8F8F8" transform="translate(307,191)"/>
<path d="M0 0 C2.64 0 5.28 0 8 0 C8.350625 1.093125 8.70125 2.18625 9.0625 3.3125 C10.47073095 6.60058642 10.96767846 6.98170479 14.3125 8.875 C17.56368568 9.86688716 20.6300156 10.58902629 24 11 C23 13 23 13 20.99609375 13.67578125 C20.15175781 13.88589844 19.30742187 14.09601563 18.4375 14.3125 C7.67203457 17.39053492 -1.40478118 24.56742572 -7.08984375 34.203125 C-8.13199261 36.15169303 -8.13199261 36.15169303 -9 39 C-18.9 39 -28.8 39 -39 39 C-39 24.55555556 -39 24.55555556 -34.80078125 19.68359375 C-34.20652344 19.12800781 -33.61226562 18.57242188 -33 18 C-32.01966797 17.00419922 -32.01966797 17.00419922 -31.01953125 15.98828125 C-26.48517547 13.00252822 -21.61115489 12.02015638 -16.375 10.75 C-15.32570312 10.481875 -14.27640625 10.21375 -13.1953125 9.9375 C-5.48485332 8 -5.48485332 8 -2 8 C-1.34 5.36 -0.68 2.72 0 0 Z " fill="#F8F8F8" transform="translate(185,191)"/>
<path d="M0 0 C8.03608549 4.51725412 12.82805984 10.36925304 15.3828125 19.1640625 C15.52976562 19.73253906 15.67671875 20.30101563 15.828125 20.88671875 C12.66280102 20.27746391 10.6732481 19.20621918 8.078125 17.32421875 C4.63430663 15.15989667 1.98083995 13.94459302 -2.125 14.19921875 C-5.70218378 15.40071559 -7.96828198 18.19718901 -10.640625 20.7734375 C-19.23769576 27.95093022 -29.42500908 28.61176967 -40.171875 27.88671875 C-40.761135 19.78439371 -38.51578096 14.40257769 -34.046875 7.69921875 C-25.05231768 -1.88602592 -12.37299822 -4.34273952 0 0 Z " fill="#F7F7F7" transform="translate(262.171875,106.11328125)"/>
<path d="M0 0 C0.57042254 14.23943662 0.57042254 14.23943662 -3 19 C-7.87237546 23.66053305 -11.7198302 26.04289452 -18.4375 26.3125 C-23.50116701 26.16159602 -26.95554584 24.9868639 -30.6640625 21.3828125 C-35.87846487 15.62472836 -36.12683515 11.61010901 -36 4 C-35.42668945 3.98541748 -34.85337891 3.97083496 -34.26269531 3.95581055 C-19.53829882 3.59659693 -19.53829882 3.59659693 -5.1796875 0.62109375 C-3 0 -3 0 0 0 Z " fill="#F5F5F5" transform="translate(207,150)"/>
<path d="M0 0 C2.66948791 0.5141236 5.31123527 1.07575038 7.953125 1.71875 C17.32408836 3.93935743 26.39993092 4.66295157 36 5 C36.64395592 10.15164735 36.53284451 13.95995829 33.5 18.3125 C29.67589991 22.7993247 25.57597612 25.47179979 19.69921875 26.33984375 C14.75129574 26.54773967 11.15594763 25.86298614 7 23 C2.93694011 18.96555321 0.08770596 15.81711543 -0.09765625 9.86328125 C-0.08605469 8.69152344 -0.07445312 7.51976562 -0.0625 6.3125 C-0.05347656 5.13300781 -0.04445313 3.95351562 -0.03515625 2.73828125 C-0.02355469 1.83464844 -0.01195312 0.93101562 0 0 Z " fill="#F9F9F9" transform="translate(293,150)"/>
<path d="M0 0 C3.80122401 3.39657759 6.87454294 7.22959637 9.8125 11.375 C10.42254883 12.18324219 10.42254883 12.18324219 11.04492188 13.0078125 C13.94237065 17.09832841 14.60975533 20.04424347 14 25 C11.60287129 27.67108628 10.11735444 28.86386663 6.53125 29.30078125 C2.53596903 28.82603336 1.34229245 26.56200033 -1.0859375 23.55078125 C-2.03339844 22.28814453 -2.03339844 22.28814453 -3 21 C-3.73476562 20.02417969 -4.46953125 19.04835938 -5.2265625 18.04296875 C-11.68611483 8.96992263 -11.68611483 8.96992263 -11 2 C-7.88447276 -1.98787487 -4.55579916 -1.27882082 0 0 Z " fill="#060606" transform="translate(130,396)"/>
<path d="M0 0 C4.35204278 2.45074954 7.60882562 6.01752598 9.8125 10.5 C9.96875 13.25390625 9.96875 13.25390625 9.8125 15.5 C-14.07466177 16.34974093 -14.07466177 16.34974093 -22.1875 11.5 C-23.4921875 9.359375 -23.4921875 9.359375 -24.1875 7.5 C-17.89682921 -0.82588781 -10.06802195 -4.33136699 0 0 Z " fill="#F2F2F2" transform="translate(319.1875,124.5)"/>
<path d="M0 0 C3.02287456 1.71699275 5.63090546 3.38865108 7.6875 6.25 C7.5703125 8.23828125 7.5703125 8.23828125 6.6875 10.25 C4.61328125 11.48046875 4.61328125 11.48046875 2 12.4375 C1.15050781 12.76105469 0.30101562 13.08460938 -0.57421875 13.41796875 C-6.47776762 15.21177176 -12.07795903 15.3798085 -18.1875 15.3125 C-18.97125 15.30798828 -19.755 15.30347656 -20.5625 15.29882812 C-22.47920014 15.28714093 -24.39586048 15.26920908 -26.3125 15.25 C-25.64244206 8.65978311 -24.12787768 5.62453325 -19.3125 1.25 C-13.2375487 -2.93496645 -6.59806504 -3.10858558 0 0 Z " fill="#F4F4F4" transform="translate(197.3125,124.75)"/>
<path d="M0 0 C2.95703125 2.1171875 2.95703125 2.1171875 5.8125 4.875 C6.76769531 5.77992187 7.72289062 6.68484375 8.70703125 7.6171875 C11.31308562 10.32535302 11.91035269 11.17524474 12.3125 14.875 C12 18 12 18 10.4375 20.375 C7.05837435 22.62775044 5.00634745 22.44184532 1 22 C-1.8359375 19.8828125 -1.8359375 19.8828125 -4.375 17.125 C-5.22835937 16.22007813 -6.08171875 15.31515625 -6.9609375 14.3828125 C-9.28554571 11.66631632 -9.92752688 10.66675274 -10.3125 7.125 C-10 4 -10 4 -8.375 1.625 C-5.25443595 -0.51012277 -3.73679212 -0.47220702 0 0 Z " fill="#0B0B0B" transform="translate(213,64)"/>
<path d="M0 0 C2.5 1.5625 2.5 1.5625 4 4 C3.7361093 11.21868752 0.77948172 14.23308454 -4.2890625 19.00390625 C-6.91668397 20.93865347 -8.22896748 21.72590462 -11.4375 21.875 C-15 21 -15 21 -17 19.375 C-18.37832203 16.10148517 -18.68127187 14.54261375 -18 11 C-15.95047881 8.0431387 -13.68735195 5.39551282 -11 3 C-10.34 3 -9.68 3 -9 3 C-9 2.34 -9 1.68 -9 1 C-5.90826248 -0.54586876 -3.40570448 -0.29359521 0 0 Z " fill="#090909" transform="translate(293,65)"/>
<path d="M0 0 C3.40547415 0.92876568 4.37000477 1.25584387 6.4375 3.9375 C6.82568359 5.8828125 6.82568359 5.8828125 6.8359375 8.0625 C6.83980469 8.85140625 6.84367187 9.6403125 6.84765625 10.453125 C6.83605469 11.27296875 6.82445312 12.0928125 6.8125 12.9375 C6.82410156 13.75734375 6.83570313 14.5771875 6.84765625 15.421875 C6.84378906 16.21078125 6.83992188 16.9996875 6.8359375 17.8125 C6.83086182 18.89144531 6.83086182 18.89144531 6.82568359 19.9921875 C6.32896572 22.48140011 5.4004182 23.37659273 3.4375 24.9375 C1.5 25.37109375 1.5 25.37109375 -0.5625 25.375 C-1.243125 25.39433594 -1.92375 25.41367188 -2.625 25.43359375 C-4.5625 24.9375 -4.5625 24.9375 -6.28515625 23.44140625 C-8.12186717 19.8410035 -8.03687274 16.38623497 -8 12.4375 C-8.01998047 11.67824219 -8.03996094 10.91898438 -8.06054688 10.13671875 C-8.05740312 6.54655514 -7.86363686 4.36052559 -5.7578125 1.40234375 C-3.5625 -0.0625 -3.5625 -0.0625 0 0 Z " fill="#060606" transform="translate(250.5625,50.0625)"/>
<path d="M0 0 C5.94 0 11.88 0 18 0 C18 6.7500702 18 6.7500702 16.50390625 9.796875 C16.19259766 10.44527344 15.88128906 11.09367188 15.56054688 11.76171875 C15.23119141 12.41785156 14.90183594 13.07398438 14.5625 13.75 C14.23701172 14.42160156 13.91152344 15.09320313 13.57617188 15.78515625 C12.40286358 18.19951023 11.20046746 20.59906509 10 23 C9.34 23 8.68 23 8 23 C7.50628906 21.85660156 7.01257813 20.71320313 6.50390625 19.53515625 C5.85689488 18.044217 5.2097527 16.5533345 4.5625 15.0625 C4.23701172 14.30775391 3.91152344 13.55300781 3.57617188 12.77539062 C2.19897394 9.12971311 2.19897394 9.12971311 0 6 C0 4.02 0 2.04 0 0 Z " fill="#ECECEC" transform="translate(241,198)"/>
<path d="M0 0 C2.4375 1.625 2.4375 1.625 4 4 C4.60605429 7.63632575 4.47161336 9.28314769 2.4375 12.375 C-0.92058549 14.61372366 -3.04745604 14.57491549 -7 14 C-8.9375 12.4375 -8.9375 12.4375 -10 10 C-10.61818182 4.12727273 -10.61818182 4.12727273 -8.9375 1.0625 C-5.8347167 -0.63902633 -3.46230815 -0.42519574 0 0 Z " fill="#0B0B0B" transform="translate(114,374)"/>
<path d="M0 0 C2.4375 1.0625 2.4375 1.0625 4 3 C4.57491549 6.95254396 4.61372366 9.07941451 2.375 12.4375 C-0.71685231 14.47161336 -2.36367425 14.60605429 -6 14 C-8.375 12.4375 -8.375 12.4375 -10 10 C-10.42519574 6.53769185 -10.63902633 4.1652833 -8.9375 1.0625 C-5.87116726 -0.61903731 -3.42486249 -0.36051184 0 0 Z " fill="#0C0C0C" transform="translate(253,267)"/>
<path d="M0 0 C3.58968499 1.32951296 5.35941599 3.50898051 7.6953125 6.46875 C9.54725406 8.6422862 11.71556211 10.302989 14 12 C7.51527007 11.26309887 1.30760257 9.64681249 -5 8 C-5 6.68 -5 5.36 -5 4 C-2.5 1.75 -2.5 1.75 0 0 Z " fill="#E1E1E1" transform="translate(213,180)"/>
<path d="M0 0 C2.49361571 1.20381448 4.68143083 2.45428722 7 4 C7 4.99 7 5.98 7 7 C4.37764986 7.86316536 1.75266548 8.71580779 -0.875 9.5625 C-1.62136719 9.80935547 -2.36773437 10.05621094 -3.13671875 10.31054688 C-8.7734375 12.11328125 -8.7734375 12.11328125 -11 11 C-10.37351562 10.45730469 -9.74703125 9.91460937 -9.1015625 9.35546875 C-8.28429687 8.64003906 -7.46703125 7.92460937 -6.625 7.1875 C-5.40683594 6.12595703 -5.40683594 6.12595703 -4.1640625 5.04296875 C-1.83816812 3.00018747 -1.83816812 3.00018747 0 0 Z " fill="#EFEFEF" transform="translate(285,180)"/>
<path d="M0 0 C-0.598125 0.268125 -1.19625 0.53625 -1.8125 0.8125 C-4.06604393 2.03585242 -5.42858036 2.97960332 -7 5 C-7.72197162 7.60611077 -7.72197162 7.60611077 -8 10 C-8.33 10 -8.66 10 -9 10 C-9.25 6.6875 -9.25 6.6875 -9 3 C-6.29148704 -0.10977414 -4.00164289 -0.33347024 0 0 Z " fill="#313131" transform="translate(128,395)"/>
</svg>
