<?xml version="1.0" encoding="UTF-8"?>
<svg version="1.1" xmlns="http://www.w3.org/2000/svg" width="100" height="100">
<path d="M0 0 C165 0 330 0 500 0 C500 165 500 330 500 500 C335 500 170 500 0 500 C0 335 0 170 0 0 Z " fill="#FEFEFE" transform="translate(0,0)"/>
<path d="M0 0 C4.22616087 1.56524477 6.61783235 3.16206323 9 7 C9.495 6.835 9.99 6.67 10.5 6.5 C15.59372034 5.48125593 19.42773651 5.04297005 23.875 7.75 C28.22080264 12.35143809 28.36818683 16.22051486 28.26171875 22.37109375 C27.94120877 25.59054477 27.0343024 27.4962432 25 30 C24.01 31.485 24.01 31.485 23 33 C24.5778125 33.0928125 24.5778125 33.0928125 26.1875 33.1875 C30.66337256 34.14137448 32.12282867 35.53046987 35 39 C36.25069801 41.50139602 36.13302467 43.27392691 36.125 46.0625 C36.12886719 47.41021484 36.12886719 47.41021484 36.1328125 48.78515625 C36 51 36 51 35 52 C32.98035801 52.07244053 30.95832876 52.08377188 28.9375 52.0625 C27.83277344 52.05347656 26.72804688 52.04445312 25.58984375 52.03515625 C24.73519531 52.02355469 23.88054687 52.01195312 23 52 C23.01160156 52.78246094 23.02320313 53.56492188 23.03515625 54.37109375 C23.04417969 55.38300781 23.05320312 56.39492187 23.0625 57.4375 C23.07410156 58.44683594 23.08570313 59.45617187 23.09765625 60.49609375 C23 63 23 63 22 64 C20.58429877 64.08651611 19.164405 64.10704904 17.74609375 64.09765625 C16.89208984 64.09443359 16.03808594 64.09121094 15.15820312 64.08789062 C14.26037109 64.07951172 13.36253906 64.07113281 12.4375 64.0625 C11.53580078 64.05798828 10.63410156 64.05347656 9.70507812 64.04882812 C7.46998686 64.03700225 5.23502563 64.0205222 3 64 C3.33 62.35 3.66 60.7 4 59 C5.32 59 6.64 59 8 59 C8 56.69 8 54.38 8 52 C9.65 52.33 11.3 52.66 13 53 C13 54.98 13 56.96 13 59 C14.32 59 15.64 59 17 59 C17.03429249 51.73939058 17.03429249 51.73939058 14 45.4375 C10.09973079 43.568621 6.25090955 42.7038543 2 42 C1.79503906 42.62648437 1.59007812 43.25296875 1.37890625 43.8984375 C1.10949219 44.71570313 0.84007812 45.53296875 0.5625 46.375 C0.29566406 47.18710938 0.02882812 47.99921875 -0.24609375 48.8359375 C-1 51 -1 51 -2 53 C-3.859375 52.7421875 -3.859375 52.7421875 -6 52 C-7.265625 50.2578125 -7.265625 50.2578125 -8.25 48.125 C-8.58515625 47.42632812 -8.9203125 46.72765625 -9.265625 46.0078125 C-10 44 -10 44 -10 41 C-11.7761553 41.56692224 -13.54581206 42.15422975 -15.3125 42.75 C-16.79169922 43.23726562 -16.79169922 43.23726562 -18.30078125 43.734375 C-21.31126058 45.14594563 -22.42410191 46.09702983 -24 49 C-24.56984448 51.57873609 -24.56984448 51.57873609 -24.6875 54.25 C-24.75324219 55.14203125 -24.81898438 56.0340625 -24.88671875 56.953125 C-24.92410156 57.62859375 -24.96148437 58.3040625 -25 59 C-23.35 59 -21.7 59 -20 59 C-20 56.69 -20 54.38 -20 52 C-18.35 52.33 -16.7 52.66 -15 53 C-15 54.98 -15 56.96 -15 59 C-13.68 59 -12.36 59 -11 59 C-10.4375 60.9375 -10.4375 60.9375 -10 63 C-11.5220959 64.5220959 -12.88210082 64.12959521 -15 64.1328125 C-15.804375 64.13410156 -16.60875 64.13539063 -17.4375 64.13671875 C-18.283125 64.13285156 -19.12875 64.12898438 -20 64.125 C-20.845625 64.12886719 -21.69125 64.13273437 -22.5625 64.13671875 C-23.366875 64.13542969 -24.17125 64.13414062 -25 64.1328125 C-25.7425 64.13168457 -26.485 64.13055664 -27.25 64.12939453 C-29 64 -29 64 -30 63 C-30.07226502 61.14712498 -30.0838122 59.29166122 -30.0625 57.4375 C-30.05347656 56.42558594 -30.04445312 55.41367188 -30.03515625 54.37109375 C-30.02355469 53.58863281 -30.01195312 52.80617187 -30 52 C-31.39025391 52.01740234 -31.39025391 52.01740234 -32.80859375 52.03515625 C-34.00613281 52.04417969 -35.20367187 52.05320313 -36.4375 52.0625 C-37.63246094 52.07410156 -38.82742187 52.08570313 -40.05859375 52.09765625 C-43 52 -43 52 -44 51 C-44.64189911 46.75859071 -44.85935835 42.71564756 -42.90625 38.81640625 C-40.15685082 35.29922272 -38.56236984 34.13605722 -34.125 33.0625 C-33.09375 33.041875 -32.0625 33.02125 -31 33 C-31.66 32.29875 -32.32 31.5975 -33 30.875 C-36.48254027 25.6574307 -35.83953128 18.96137761 -35 13 C-33.39876872 9.66163958 -31.35333422 7.67666711 -28 6 C-25.32419565 5.95684187 -22.67336718 5.9546032 -20 6 C-16.17052451 6.42195334 -16.17052451 6.42195334 -14.39453125 4.6875 C-13.87246094 4.130625 -13.35039062 3.57375 -12.8125 3 C-8.73822403 -0.69832347 -5.31375588 -0.97757622 0 0 Z " fill="#0F0F0F" transform="translate(254,163)"/>
<path d="M0 0 C3.96 0 7.92 0 12 0 C12 18.15 12 36.3 12 55 C8.04 55 4.08 55 0 55 C-0.33 54.34 -0.66 53.68 -1 53 C-1.639375 53.495 -2.27875 53.99 -2.9375 54.5 C-7.58802825 56.77780975 -12.04892737 56.97021566 -16.99609375 55.34375 C-21.82296475 52.93550468 -23.72740506 49.80741238 -26 45 C-27.64480616 40.06558151 -27.5902043 35.73589501 -25.9375 30.875 C-23.13791431 26.72077607 -19.51223683 23.25611841 -15 21 C-8.60431388 20.57362093 -7.21624863 20.89187568 -1 24 C-0.67 16.08 -0.34 8.16 0 0 Z " fill="#0B0B0B" transform="translate(343,275)"/>
<path d="M0 0 C5.67507225 2.00296668 9.30675089 5.61350179 12 11 C12.49328755 16.85475711 12.85744288 22.18984281 10.3125 27.5625 C3.47227885 34.77246283 3.47227885 34.77246283 -1.20703125 35.203125 C-2.49673828 35.22632813 -2.49673828 35.22632813 -3.8125 35.25 C-5.09060547 35.28867187 -5.09060547 35.28867187 -6.39453125 35.328125 C-9 35 -9 35 -14 32 C-14 38.27 -14 44.54 -14 51 C-17.96 51 -21.92 51 -26 51 C-26 34.5 -26 18 -26 1 C-22.04 1 -18.08 1 -14 1 C-13.67 1.66 -13.34 2.32 -13 3 C-12.34 2.505 -11.68 2.01 -11 1.5 C-7.24907939 -0.3754603 -4.07971381 -0.57822715 0 0 Z " fill="#0A0A0A" transform="translate(112,296)"/>
<path d="M0 0 C2.27096254 1.14938512 3.99243097 2.40424 6 4 C7.010625 3.175 8.02125 2.35 9.0625 1.5 C12.8456346 -1.17179124 15.31760621 -1.75252757 20 -1 C23.92723575 0.64099506 26.59621209 2.39431813 29 6 C29.22705078 8.8190918 29.22705078 8.8190918 29.1953125 12.19921875 C29.18886719 13.40771484 29.18242187 14.61621094 29.17578125 15.86132812 C29.15902344 17.12396484 29.14226562 18.38660156 29.125 19.6875 C29.11597656 20.96173828 29.10695313 22.23597656 29.09765625 23.54882812 C29.07405641 26.69940627 29.04113194 29.84960983 29 33 C25.37 33 21.74 33 18 33 C17.94392578 30.77830078 17.94392578 30.77830078 17.88671875 28.51171875 C17.82106646 26.57028686 17.75461887 24.62888174 17.6875 22.6875 C17.65366211 21.22280273 17.65366211 21.22280273 17.61914062 19.72851562 C17.58369141 18.79072266 17.54824219 17.85292969 17.51171875 16.88671875 C17.48553467 16.02264404 17.45935059 15.15856934 17.43237305 14.26831055 C16.91629808 11.56088392 16.21916208 10.60304169 14 9 C10.68181015 9.24205349 10.68181015 9.24205349 8 11 C7.84285346 12.63256758 7.74914586 14.27135338 7.68359375 15.91015625 C7.62075195 17.39418945 7.62075195 17.39418945 7.55664062 18.90820312 C7.51732422 19.94912109 7.47800781 20.99003906 7.4375 22.0625 C7.37272461 23.62967773 7.37272461 23.62967773 7.30664062 25.22851562 C7.20018895 27.81883972 7.09955692 30.40940175 7 33 C3.37 33 -0.26 33 -4 33 C-4.06058594 31.51886719 -4.12117188 30.03773438 -4.18359375 28.51171875 C-4.26800315 26.57030266 -4.35265095 24.62889692 -4.4375 22.6875 C-4.47681641 21.71103516 -4.51613281 20.73457031 -4.55664062 19.72851562 C-4.59853516 18.79072266 -4.64042969 17.85292969 -4.68359375 16.88671875 C-4.72025146 16.02264404 -4.75690918 15.15856934 -4.79467773 14.26831055 C-4.92747354 11.8352174 -4.92747354 11.8352174 -6 9 C-8.64 9 -11.28 9 -14 9 C-14.33 16.92 -14.66 24.84 -15 33 C-18.96 33 -22.92 33 -27 33 C-27 22.11 -27 11.22 -27 0 C-23.04 0 -19.08 0 -15 0 C-14.67 0.66 -14.34 1.32 -14 2 C-13.360625 1.484375 -12.72125 0.96875 -12.0625 0.4375 C-7.80357837 -1.56158566 -4.4933826 -1.19823536 0 0 Z " fill="#070707" transform="translate(389,297)"/>
<path d="M0 0 C3.91908593 0.73482861 5.31896994 1.5744945 8 4.5625 C8.7654818 8.06751706 8.7003306 11.5256002 8.6640625 15.1015625 C8.66884613 16.13759613 8.67362976 17.17362976 8.67855835 18.24105835 C8.68196041 20.43497229 8.67273673 22.62893671 8.65185547 24.82275391 C8.62525822 28.15514738 8.65150984 31.48412216 8.68359375 34.81640625 C8.68028653 36.95313236 8.67387385 39.08985636 8.6640625 41.2265625 C8.67418365 42.21234283 8.68430481 43.19812317 8.69473267 44.21377563 C8.51535277 54.99571099 3.2413903 62.70635992 -2.9375 71.1875 C-3.43701172 71.88617188 -3.93652344 72.58484375 -4.45117188 73.3046875 C-5.45154553 74.69875659 -6.45974043 76.08724991 -7.47607422 77.46972656 C-8.53147506 78.91908511 -9.56294563 80.38605892 -10.57470703 81.86621094 C-11.34403564 82.96497559 -11.34403564 82.96497559 -12.12890625 84.0859375 C-12.81255249 85.08633057 -12.81255249 85.08633057 -13.51000977 86.10693359 C-15 87.5625 -15 87.5625 -19 87.5625 C-18.44255532 83.78890119 -17.45853441 81.34634156 -15.26953125 78.234375 C-14.43518555 77.03361328 -14.43518555 77.03361328 -13.58398438 75.80859375 C-12.99939453 74.98488281 -12.41480469 74.16117187 -11.8125 73.3125 C-10.67265127 71.68265928 -9.53332631 70.05245212 -8.39453125 68.421875 C-7.55269287 67.22208008 -7.55269287 67.22208008 -6.69384766 65.99804688 C-0.31192831 57.77129058 -0.31192831 57.77129058 2.11352539 48.11279297 C2.11344986 47.19198944 2.11337433 46.27118591 2.11329651 45.32247925 C2.10813522 44.32660797 2.10297394 43.33073669 2.09765625 42.3046875 C2.0962413 41.28649933 2.09482635 40.26831116 2.09336853 39.2192688 C2.087759 35.95864965 2.07520488 32.69809849 2.0625 29.4375 C2.05748623 27.23046974 2.05292311 25.02343841 2.04882812 22.81640625 C2.03778648 17.39841419 2.02103905 11.98046195 2 6.5625 C0.68 6.5625 -0.64 6.5625 -2 6.5625 C-2.0093457 7.57562256 -2.01869141 8.58874512 -2.02832031 9.63256836 C-2.06851122 13.42938512 -2.13434669 17.22541611 -2.20751953 21.02172852 C-2.23556187 22.65769272 -2.25685881 24.29378819 -2.27099609 25.92993164 C-2.38132046 37.98103029 -2.86038976 47.0266219 -11.77734375 55.97460938 C-12.34582031 56.51923828 -12.91429687 57.06386719 -13.5 57.625 C-14.06847656 58.20443359 -14.63695312 58.78386719 -15.22265625 59.38085938 C-19.4783519 63.5625 -19.4783519 63.5625 -24 63.5625 C-23.58872558 57.87663114 -19.94410638 55.28283196 -15.94921875 51.75585938 C-12.47630811 48.52577758 -11.27928272 46.30332411 -11 41.5625 C-19.95453935 42.27975972 -25.72552303 47.36589812 -31.9296875 53.45703125 C-37.38789825 60.39998844 -38.59039484 69.82865178 -40.46289062 78.25488281 C-41.19391727 81.3956391 -42.07889774 84.47262061 -43 87.5625 C-44.32 87.5625 -45.64 87.5625 -47 87.5625 C-46.32811788 72.00842888 -43.47153083 56.33115244 -31.75 45.3125 C-20.28662573 35.83688255 -20.28662573 35.83688255 -14.84765625 35.3828125 C-12.61440634 35.66596484 -10.64462464 35.91787536 -9 37.5625 C-8.99589111 36.61930908 -8.99178223 35.67611816 -8.98754883 34.7043457 C-8.96051141 31.19056324 -8.91137159 27.67851318 -8.84741211 24.1652832 C-8.82427549 22.64748832 -8.80984652 21.12953387 -8.80444336 19.61157227 C-8.79512078 17.4236357 -8.75406849 15.23819313 -8.70703125 13.05078125 C-8.68346558 11.07911987 -8.68346558 11.07911987 -8.65942383 9.06762695 C-7.69027414 3.91617116 -5.22137828 0.97900843 0 0 Z " fill="#0E0E0E" transform="translate(305,187.4375)"/>
<path d="M0 0 C4.88660121 2.70795954 7.82966918 5.42650753 9.625 10.8125 C10.18884129 16.50512838 9.93219906 20.96194138 6.625 25.8125 C1.22960419 31.08799812 -3.32884274 32.861029 -10.75 33.25 C-16.458312 33.14127025 -20.08829434 31.52292683 -24.375 27.8125 C-28.96940273 22.86468168 -29.74393451 18.88269405 -29.6484375 12.3125 C-29.15730523 7.82214779 -27.05018072 5.21356023 -23.65625 2.375 C-16.22009957 -3.17060371 -8.49382784 -4.01412012 0 0 Z " fill="#070707" transform="translate(71.375,298.1875)"/>
<path d="M0 0 C2.69990662 1.79993774 4.5418865 3.083773 6 6 C6.15495763 8.24974161 6.25010928 10.50371536 6.31640625 12.7578125 C6.33718735 13.42086395 6.35796844 14.08391541 6.37937927 14.76705933 C6.44479231 16.88626694 6.50372105 19.005599 6.5625 21.125 C6.60569309 22.56121081 6.64930764 23.99740902 6.69335938 25.43359375 C6.80046499 28.95559594 6.90175575 32.47773825 7 36 C8.62421875 35.70222656 8.62421875 35.70222656 10.28125 35.3984375 C14.96386267 34.896729 17.31972356 36.40008745 21 39 C21.61157959 39.41644775 22.22315918 39.83289551 22.85327148 40.26196289 C34.2341854 48.17865838 39.23823407 56.66012789 42.3125 70.125 C42.48418701 70.87692627 42.65587402 71.62885254 42.83276367 72.40356445 C43.87341506 77.36036563 44.15498214 81.93724999 44 87 C42.68 87 41.36 87 40 87 C39.80422363 86.07102905 39.80422363 86.07102905 39.60449219 85.12329102 C38.99653036 82.26741428 38.37336911 79.41505165 37.75 76.5625 C37.54503906 75.58861328 37.34007812 74.61472656 37.12890625 73.61132812 C33.96643971 59.28439639 28.27859869 50.80242748 16.4296875 42.15234375 C13.47940202 40.7530926 12.06398133 41.04591329 9 42 C9.36419153 47.07066665 12.12507906 49.65082753 15.5625 53.0625 C17.50185059 54.98743163 19.24086271 56.89309257 21 59 C21 60.32 21 61.64 21 63 C14.01497036 62.14049029 10.42311584 56.99233917 6.1875 51.76171875 C1.91954877 46.14977326 0.83218777 42.81506567 0.68359375 35.7109375 C0.66281265 34.89251373 0.64203156 34.07408997 0.62062073 33.23086548 C0.55515188 30.61233034 0.49625274 27.99369361 0.4375 25.375 C0.39431224 23.60155193 0.35069786 21.82811419 0.30664062 20.0546875 C0.19947324 15.70322954 0.09819831 11.35166923 0 7 C-2.475 6.01 -2.475 6.01 -5 5 C-5.12435721 11.2255133 -5.21469608 17.45029064 -5.2746582 23.67675781 C-5.29967575 25.79114389 -5.33370092 27.90544459 -5.37719727 30.01953125 C-5.43841332 33.07313192 -5.46633792 36.12558139 -5.48828125 39.1796875 C-5.51408768 40.11239471 -5.5398941 41.04510193 -5.56648254 42.006073 C-5.56997741 50.33643673 -2.55241684 56.17137474 2 63 C2 64.32 2 65.64 2 67 C-0.265625 66.83203125 -0.265625 66.83203125 -3 66 C-4.984375 63.63671875 -4.984375 63.63671875 -6.75 60.6875 C-7.34296875 59.72199219 -7.9359375 58.75648438 -8.546875 57.76171875 C-10.56059894 53.93456062 -11.12328981 50.79221718 -11.16113281 46.49438477 C-11.17074036 45.60989151 -11.1803479 44.72539825 -11.19024658 43.81410217 C-11.19449646 42.86611252 -11.19874634 41.91812286 -11.203125 40.94140625 C-11.20882507 39.96010239 -11.21452515 38.97879852 -11.22039795 37.96775818 C-11.22983484 35.89412511 -11.23637672 33.82047713 -11.24023438 31.74682617 C-11.2499534 28.57769665 -11.28099482 25.40921215 -11.3125 22.24023438 C-11.31902914 20.22396218 -11.32427996 18.20768535 -11.328125 16.19140625 C-11.3404718 15.24544083 -11.3528186 14.2994754 -11.36553955 13.32484436 C-11.34896705 8.42313655 -11.28094137 4.93742918 -8 1 C-5.14675563 -0.42662219 -3.16545451 -0.31033868 0 0 Z " fill="#0F0F0F" transform="translate(198,188)"/>
<path d="M0 0 C3.19956811 1.53022823 5.7242113 3.26905356 8 6 C9.0394775 9.1184325 9.11494838 11.27475586 9.09765625 14.54296875 C9.09443359 15.61611328 9.09121094 16.68925781 9.08789062 17.79492188 C9.07532227 19.47424805 9.07532227 19.47424805 9.0625 21.1875 C9.05798828 22.31865234 9.05347656 23.44980469 9.04882812 24.61523438 C9.03703511 27.41017876 9.01909957 30.20509599 9 33 C5.04 33 1.08 33 -3 33 C-3.04898437 31.43507813 -3.09796875 29.87015625 -3.1484375 28.2578125 C-3.22345729 26.21352322 -3.29900545 24.16925328 -3.375 22.125 C-3.4059375 21.09246094 -3.436875 20.05992187 -3.46875 18.99609375 C-3.50742187 18.00996094 -3.54609375 17.02382813 -3.5859375 16.0078125 C-3.63306885 14.64100342 -3.63306885 14.64100342 -3.68115234 13.24658203 C-3.79882511 10.80068814 -3.79882511 10.80068814 -6 9 C-10.34194936 9.09695116 -10.34194936 9.09695116 -14 11 C-14.15714654 12.63256758 -14.25085414 14.27135338 -14.31640625 15.91015625 C-14.35830078 16.89951172 -14.40019531 17.88886719 -14.44335938 18.90820312 C-14.48267578 19.94912109 -14.52199219 20.99003906 -14.5625 22.0625 C-14.60568359 23.10728516 -14.64886719 24.15207031 -14.69335938 25.22851562 C-14.79981105 27.81883972 -14.90044308 30.40940175 -15 33 C-18.96 33 -22.92 33 -27 33 C-27 22.11 -27 11.22 -27 0 C-23.04 0 -19.08 0 -15 0 C-14.67 0.66 -14.34 1.32 -14 2 C-13.360625 1.484375 -12.72125 0.96875 -12.0625 0.4375 C-7.80122259 -1.56269144 -4.5065649 -1.08157558 0 0 Z " fill="#0D0D0D" transform="translate(303,297)"/>
<path d="M0 0 C3.19956811 1.53022823 5.7242113 3.26905356 8 6 C9.0394775 9.1184325 9.11494838 11.27475586 9.09765625 14.54296875 C9.09443359 15.61611328 9.09121094 16.68925781 9.08789062 17.79492188 C9.07532227 19.47424805 9.07532227 19.47424805 9.0625 21.1875 C9.05798828 22.31865234 9.05347656 23.44980469 9.04882812 24.61523438 C9.03703511 27.41017876 9.01909957 30.20509599 9 33 C5.04 33 1.08 33 -3 33 C-3.04898438 31.43507813 -3.09796875 29.87015625 -3.1484375 28.2578125 C-3.22345729 26.21352322 -3.29900545 24.16925328 -3.375 22.125 C-3.4059375 21.09246094 -3.436875 20.05992187 -3.46875 18.99609375 C-3.50742188 18.00996094 -3.54609375 17.02382813 -3.5859375 16.0078125 C-3.63306885 14.64100342 -3.63306885 14.64100342 -3.68115234 13.24658203 C-3.79882511 10.80068814 -3.79882511 10.80068814 -6 9 C-10.34194936 9.09695116 -10.34194936 9.09695116 -14 11 C-14.15714654 12.63256758 -14.25085414 14.27135338 -14.31640625 15.91015625 C-14.35830078 16.89951172 -14.40019531 17.88886719 -14.44335938 18.90820312 C-14.48267578 19.94912109 -14.52199219 20.99003906 -14.5625 22.0625 C-14.60568359 23.10728516 -14.64886719 24.15207031 -14.69335938 25.22851562 C-14.79981105 27.81883972 -14.90044308 30.40940175 -15 33 C-18.96 33 -22.92 33 -27 33 C-27 22.11 -27 11.22 -27 0 C-23.04 0 -19.08 0 -15 0 C-14.67 0.66 -14.34 1.32 -14 2 C-13.360625 1.484375 -12.72125 0.96875 -12.0625 0.4375 C-7.80122259 -1.56269144 -4.5065649 -1.08157558 0 0 Z " fill="#0D0D0D" transform="translate(195,297)"/>
<path d="M0 0 C4.44496055 2.49696987 7.0635749 5.44072469 8.6875 10.3125 C8.6875 12.6225 8.6875 14.9325 8.6875 17.3125 C0.7675 17.3125 -7.1525 17.3125 -15.3125 17.3125 C-13.54398964 20.49324165 -13.54398964 20.49324165 -11.3125 23.3125 C-5.98576964 23.65106828 -5.98576964 23.65106828 -1.3125 21.3125 C2.51853042 21.63175253 4.45430553 22.15703702 7.6875 24.3125 C6.18114535 28.53029303 3.44737578 30.0872674 -0.3125 32.3125 C-5.77640608 34.13380203 -11.56821798 34.49622762 -16.9296875 32.18359375 C-21.51275237 29.30603007 -24.82339893 26.67326387 -26.3125 21.3125 C-27.0711262 16.1971919 -27.52820935 11.50287288 -24.953125 6.86328125 C-18.28127293 -1.12227621 -9.79592063 -4.48751671 0 0 Z " fill="#070707" transform="translate(154.3125,297.6875)"/>
<path d="M0 0 C3.64622337 2.11138148 5.95369889 5.30974152 7.828125 9.05859375 C7.828125 11.69859375 7.828125 14.33859375 7.828125 17.05859375 C-0.091875 17.05859375 -8.011875 17.05859375 -16.171875 17.05859375 C-13.84936074 21.943549 -13.84936074 21.943549 -11.171875 23.05859375 C-7.12045381 23.3171951 -5.62849831 23.36300929 -2.171875 21.05859375 C1.65915542 21.37784628 3.59493053 21.90313077 6.828125 24.05859375 C4.74626075 28.90591947 1.65924487 31.09180505 -3.171875 33.05859375 C-9.33269201 33.99970865 -14.99861092 33.78815623 -20.171875 30.05859375 C-24.79270212 25.4486648 -27.28915958 21.93479064 -27.484375 15.24609375 C-27.42785508 10.39244565 -26.44752072 7.77689429 -23.171875 4.05859375 C-15.95826043 -2.43365937 -9.03319399 -3.71641249 0 0 Z " fill="#060606" transform="translate(450.171875,297.94140625)"/>
<path d="M0 0 C3.63 0 7.26 0 11 0 C11.06058594 1.31355469 11.12117187 2.62710937 11.18359375 3.98046875 C11.26803256 5.71615541 11.35267888 7.45183198 11.4375 9.1875 C11.47681641 10.05181641 11.51613281 10.91613281 11.55664062 11.80664062 C11.76347016 15.95914122 12.00103531 19.94537862 13 24 C17.65052872 24.26932521 17.65052872 24.26932521 22 23 C22.9300889 20.2097333 23.18698769 18.23470458 23.31640625 15.33203125 C23.35830078 14.43935547 23.40019531 13.54667969 23.44335938 12.62695312 C23.48267578 11.69818359 23.52199219 10.76941406 23.5625 9.8125 C23.60568359 8.87212891 23.64886719 7.93175781 23.69335938 6.96289062 C23.79938543 4.64209812 23.90019194 2.32106823 24 0 C27.96 0 31.92 0 36 0 C36.05414787 3.37521705 36.0937459 6.7495577 36.125 10.125 C36.14175781 11.07632812 36.15851563 12.02765625 36.17578125 13.0078125 C36.22106199 19.52823845 36.0474585 24.56518448 31.6875 29.75 C26.01419443 34.49974419 20.56872705 34.43269595 13.39453125 34.3125 C8.70102617 33.88041668 6.59688509 33.03736963 3 30 C-1.00061141 24.29020719 -0.34085633 18.30189886 -0.1875 11.625 C-0.17396484 10.50738281 -0.16042969 9.38976562 -0.14648438 8.23828125 C-0.11127537 5.49197912 -0.05747288 2.74592643 0 0 Z " fill="#090909" transform="translate(234,297)"/>
<path d="M0 0 C2.28125 1.01953125 2.28125 1.01953125 4 2 C3.47755558 5.76159981 2.7772785 8.32191002 0 11 C-1.65 11 -3.3 11 -5 11 C-5.33 14.96 -5.66 18.92 -6 23 C-3.69 23 -1.38 23 1 23 C1 25.97 1 28.94 1 32 C-1.31 32 -3.62 32 -6 32 C-6 39.92 -6 47.84 -6 56 C-9.63 56 -13.26 56 -17 56 C-17 48.08 -17 40.16 -17 32 C-18.65 32 -20.3 32 -22 32 C-22 29.03 -22 26.06 -22 23 C-20.35 23 -18.7 23 -17 23 C-17.04640625 22.05898438 -17.0928125 21.11796875 -17.140625 20.1484375 C-17.47227041 8.70667082 -17.47227041 8.70667082 -15.25 5.3125 C-14.5075 4.549375 -13.765 3.78625 -13 3 C-12.443125 2.38125 -11.88625 1.7625 -11.3125 1.125 C-7.68609116 -0.63919889 -3.95874299 -0.53666058 0 0 Z " fill="#060606" transform="translate(230,274)"/>
<path d="M0 0 C1.98 0.99 3.96 1.98 6 3 C6.50341475 8.2858549 5.26910671 10.86554151 2 15 C-1.22938367 16.61469184 -4.50856753 16.58079278 -8 16 C-11 13.9375 -11 13.9375 -13 11 C-13.3125 7.1875 -13.3125 7.1875 -13 4 C-11.84371094 3.81824219 -11.84371094 3.81824219 -10.6640625 3.6328125 C-9.66117188 3.46523437 -8.65828125 3.29765625 -7.625 3.125 C-6.12839844 2.88136719 -6.12839844 2.88136719 -4.6015625 2.6328125 C-1.8574885 2.2041198 -1.8574885 2.2041198 0 0 Z " fill="#F4F4F4" transform="translate(254,178)"/>
<path d="M0 0 C2.9375 2.0625 2.9375 2.0625 5 5 C5.06584389 8.81894541 4.85572029 10.97971812 2.375 13.9375 C-1.01168643 15.45259656 -3.33417263 15.52368962 -7 15 C-9.5 12.9375 -9.5 12.9375 -11 10 C-11 6.1862249 -10.84985071 3.97575452 -8.3125 1.0625 C-5.2135552 -0.3613395 -3.37817188 -0.55153827 0 0 Z " fill="#F2F2F2" transform="translate(108,306)"/>
<path d="M0 0 C2.375 1.5 2.375 1.5 4 4 C4.58428517 6.9631605 4.39344818 8.90159561 4 12 C1.73077752 14.90460477 0.15004537 14.97856495 -3.5 15.5 C-7 15 -7 15 -9.5 12.9375 C-11.46601181 9.08739354 -11.21718491 7.10799908 -10 3 C-7.08550322 -0.34627408 -4.29616198 -0.62652362 0 0 Z " fill="#F7F7F7" transform="translate(339,306)"/>
<path d="M0 0 C2.875 1.5625 2.875 1.5625 5 4 C5.63734462 7.96569988 5.61999672 10.03280512 3.4375 13.4375 C0.05782196 15.60396028 -2.05983987 15.56288002 -6 15 C-8.4375 13.4375 -8.4375 13.4375 -10 11 C-10.56783945 7.02512383 -10.62340519 4.93510779 -8.375 1.5625 C-5.26456309 -0.48384007 -3.66322334 -0.59807728 0 0 Z " fill="#F8F8F8" transform="translate(64,306)"/>
<path d="M0 0 C0.99 0 1.98 0 3 0 C3.33 0.66 3.66 1.32 4 2 C6.01669827 3.13350534 6.01669827 3.13350534 8 4 C7.45730469 4.31453125 6.91460937 4.6290625 6.35546875 4.953125 C5.64003906 5.38109375 4.92460937 5.8090625 4.1875 6.25 C3.47980469 6.66765625 2.77210938 7.0853125 2.04296875 7.515625 C-0.11595761 8.90368651 -0.11595761 8.90368651 -1.4375 11.15625 C-3 13 -3 13 -5.48046875 13.390625 C-6.82044922 13.32101563 -6.82044922 13.32101563 -8.1875 13.25 C-9.08855469 13.21390625 -9.98960937 13.1778125 -10.91796875 13.140625 C-11.60503906 13.09421875 -12.29210937 13.0478125 -13 13 C-13.1875 8.2734375 -13.1875 8.2734375 -11.5 5.8125 C-8.12561872 3.36607357 -5.05387469 2.93039747 -1 2 C-0.67 1.34 -0.34 0.68 0 0 Z " fill="#F0F0F0" transform="translate(228,197)"/>
<path d="M0 0 C0.99 0 1.98 0 3 0 C3.33 0.66 3.66 1.32 4 2 C6.52212208 2.84960373 9.07207768 3.47138647 11.65234375 4.12109375 C14 5 14 5 16 8 C16 9.65 16 11.3 16 13 C12.7 13 9.4 13 6 13 C5.7525 12.21625 5.505 11.4325 5.25 10.625 C3.79476997 7.56901693 3.09546642 7.14974467 0 6 C-0.9075 5.62875 -1.815 5.2575 -2.75 4.875 C-3.86375 4.441875 -3.86375 4.441875 -5 4 C-4.360625 3.71125 -3.72125 3.4225 -3.0625 3.125 C-0.84793921 2.17176549 -0.84793921 2.17176549 0 0 Z " fill="#F1F1F1" transform="translate(269,197)"/>
<path d="M0 0 C3.03080981 0.62416677 4.8271264 2.26072015 6.97265625 4.40625 C6.64265625 5.39625 6.31265625 6.38625 5.97265625 7.40625 C3.99265625 6.74625 2.01265625 6.08625 -0.02734375 5.40625 C-0.02734375 6.06625 -0.02734375 6.72625 -0.02734375 7.40625 C-3.66157584 9.73215854 -6.79822706 9.56890833 -11.02734375 9.40625 C-10.6965077 6.42872554 -10.15319023 4.59250279 -8.46484375 2.09375 C-5.61338846 0.11966557 -3.44828957 -0.15468963 0 0 Z " fill="#F3F3F3" transform="translate(252.02734375,167.59375)"/>
<path d="M0 0 C0.36101683 3.24915145 0.24958242 4.6352257 -1.625 7.375 C-4 9 -4 9 -7.125 8.875 C-10 8 -10 8 -12 6 C-12.125 3.375 -12.125 3.375 -12 1 C-10.37512529 0.83211627 -8.75009558 0.66573213 -7.125 0.5 C-6.22007812 0.4071875 -5.31515625 0.314375 -4.3828125 0.21875 C-2 0 -2 0 0 0 Z " fill="#EBEBEB" transform="translate(236,183)"/>
<path d="M0 0 C3.96 0.33 7.92 0.66 12 1 C11 6 11 6 9.8125 7.875 C8 9 8 9 4.9375 8.8125 C2 8 2 8 0 6 C0 4.02 0 2.04 0 0 Z " fill="#EBEBEB" transform="translate(265,183)"/>
<path d="M0 0 C1.75 0.125 1.75 0.125 4 1 C6.3125 3.875 6.3125 3.875 8 7 C7.67 7.99 7.34 8.98 7 10 C5.68 10 4.36 10 3 10 C0.6875 7.25 0.6875 7.25 -1 4 C-0.75 1.625 -0.75 1.625 0 0 Z " fill="#1A1A1A" transform="translate(207,265)"/>
<path d="M0 0 C3.625 0.25 3.625 0.25 5.5625 1.625 C6.625 3.25 6.625 3.25 6.625 5.25 C2.665 5.25 -1.295 5.25 -5.375 5.25 C-4.13915094 0.30660377 -4.13915094 0.30660377 0 0 Z " fill="#F1F1F1" transform="translate(440.375,303.75)"/>
<path d="M0 0 C3.625 0.25 3.625 0.25 5.5625 1.625 C6.625 3.25 6.625 3.25 6.625 5.25 C2.665 5.25 -1.295 5.25 -5.375 5.25 C-4.13915094 0.30660377 -4.13915094 0.30660377 0 0 Z " fill="#F3F3F3" transform="translate(145.375,303.75)"/>
<path d="M0 0 C3.625 0.375 3.625 0.375 7 1 C7.33 1.99 7.66 2.98 8 4 C4.36576791 6.32590854 1.22911669 6.16265833 -3 6 C-2.42655063 3.13275314 -2.1385485 2.1385485 0 0 Z " fill="#E3E3E3" transform="translate(227,174)"/>
<path d="M0 0 C1.093125 0.226875 2.18625 0.45375 3.3125 0.6875 C3.6425 2.0075 3.9725 3.3275 4.3125 4.6875 C2.85457116 4.74149736 1.39607288 4.78029177 -0.0625 4.8125 C-0.87460937 4.83570313 -1.68671875 4.85890625 -2.5234375 4.8828125 C-4.6875 4.6875 -4.6875 4.6875 -6.6875 2.6875 C-4.58035839 -0.41123767 -3.86755884 -0.32775922 0 0 Z " fill="#F0F0F0" transform="translate(271.6875,174.3125)"/>
<path d="M0 0 C2.125 0.375 2.125 0.375 4 1 C3.43628586 4.26954202 2.50037734 5.82575883 0 8 C-0.99 7.67 -1.98 7.34 -3 7 C-2.25 2.25 -2.25 2.25 0 0 Z " fill="#151515" transform="translate(262,154)"/>
<path d="M0 0 C2.475 0.495 2.475 0.495 5 1 C5 2.98 5 4.96 5 7 C3.0625 7.5625 3.0625 7.5625 1 8 C0 7 0 7 -0.0625 3.4375 C-0.041875 2.303125 -0.02125 1.16875 0 0 Z " fill="#1A1A1A" transform="translate(248,150)"/>
<path d="M0 0 C3.26954202 0.56371414 4.82575883 1.49962266 7 4 C6.67 4.99 6.34 5.98 6 7 C1.125 6.125 1.125 6.125 0 5 C-0.04063832 3.33382885 -0.042721 1.66611905 0 0 Z " fill="#111111" transform="translate(235,154)"/>
<path d="M0 0 C1.98 0 3.96 0 6 0 C5.45276317 3.37462715 4.9451 5.08235 3 8 C0 3.375 0 3.375 0 0 Z " fill="#E1E1E1" transform="translate(247,199)"/>
<path d="M0 0 C1.98 0.495 1.98 0.495 4 1 C3.67 2.32 3.34 3.64 3 5 C1.68 4.67 0.36 4.34 -1 4 C-0.67 2.68 -0.34 1.36 0 0 Z " fill="#212121" transform="translate(202,258)"/>
<path d="M0 0 C0.99 0 1.98 0 3 0 C3 1.65 3 3.3 3 5 C1.68 4.67 0.36 4.34 -1 4 C-0.67 2.68 -0.34 1.36 0 0 Z " fill="#191919" transform="translate(249,222)"/>
</svg>
